ply
format ascii 1.0
comment PCL generated
element vertex 57
property float x
property float y
property float z
property float nx
property float ny
property float nz
property float curvature
element camera 1
property float view_px
property float view_py
property float view_pz
property float x_axisx
property float x_axisy
property float x_axisz
property float y_axisx
property float y_axisy
property float y_axisz
property float z_axisx
property float z_axisy
property float z_axisz
property float focal
property float scalex
property float scaley
property float centerx
property float centery
property int viewportx
property int viewporty
property float k1
property float k2
end_header
226.05005 -70.979156 1206.2405 0.083766706 -0.04396778 -0.99551493 0.17494695
226.06998 -67.813629 1206.3232 0.16143802 0.045650374 -0.98582649 0.18251291
235.66585 -58.062897 1207.026 0.1332801 -0.050429363 -0.98979461 0.18015209
215.56316 -56.869904 1206.4135 -0.034151834 -0.057732079 -0.99774784 0.20417309
232.17729 -55.815327 1206.8949 0.17540959 -0.035239939 -0.98386467 0.18092456
243.9113 -53.927979 1207.173 0.14949493 0.28249022 -0.94754976 0.19715078
234.65878 -52.136971 1206.861 0.16328764 -0.087976277 -0.98264807 0.18685374
229.59602 -47.728107 1206.5801 0.11903621 0.0069990181 -0.99286532 0.17644845
223.71072 -43.678177 1206.4697 0.052869152 -0.077192202 -0.99561352 0.20315471
218.58276 -41.449821 1206.6705 -0.052529633 0.056544539 -0.9970172 0.17475392
209.34451 -28.320217 1206.0358 0.13284351 0.019753553 -0.99094015 0.17336716
199.7415 -19.169733 1206.0713 0.024764583 -0.50939107 -0.86017865 0.19330901
242.84485 -5.1509361 1207.184 0.20622884 -0.22488673 -0.95231074 0.17377515
239.3503 -4.1458459 1207.0753 0.038973276 0.24756314 -0.96808749 0.2174418
240.6618 -58.108078 1207.2493 0.04682 -0.15651152 -0.98656583 0.24635379
242.92169 -58.130695 1207.4014 0.18759724 -0.16838138 -0.96770597 0.17716983
241.65993 -57.128487 1207.2397 0.28313091 -0.24165416 -0.92813808 0.2118603
218.7561 -41.48172 1207.453 -0.052529633 0.056544539 -0.9970172 0.17475392
260.89923 -17.33765 1208.3042 -0.14794214 -0.07920742 -0.9858191 0.18251494
253.90814 -12.455941 1208.1808 -0.19130139 -0.23925854 -0.95192391 0.18123367
265.92221 -12.682012 1208.3075 0.13865888 -0.0006210219 -0.99034005 0.18084987
250.30362 -10.068703 1207.9817 -0.20244206 -0.42290711 -0.8832705 0.19269392
248.95361 -8.8841 1207.8657 0.036514472 -0.31332114 -0.94894493 0.2086163
227.4906 -7.5294914 1207.2419 0.39817777 -0.018224781 -0.91712725 0.19043013
265.50342 5.3284426 1208.3669 0.11866906 0.032508947 -0.9924016 0.17608739
262.1535 35.68404 1208.366 -0.099209562 -0.30112866 -0.94840866 0.22396097
278.86581 -35.47929 1208.8193 0.23066197 0.0061999941 -0.97301418 0.173507
268.41385 -34.085114 1208.413 0.23668768 0.066477977 -0.96930885 0.17717122
268.42703 -30.793322 1208.4126 0.39222556 -0.23251517 -0.88999766 0.22817914
280.20203 10.198698 1209.4194 0.28552517 0.063927688 -0.95623672 0.21604702
264.54578 12.733607 1208.4473 0.47115722 -0.16786198 -0.86592913 0.22048689
268.06158 12.718858 1208.5665 0.1836393 0.09049245 -0.97881955 0.22248344
264.55054 13.71645 1208.4502 0.086962976 -0.04237096 -0.99531013 0.18739374
275.46454 23.303627 1209.0312 0.19294874 0.010583512 -0.9811517 0.17654203
286.35071 -41.480831 1209.6576 0.56831008 -0.56980807 -0.59358442 0.18549854
293.51767 -29.437799 1210.6606 -0.017396109 -0.065028794 -0.99773175 0.18931794
290.77316 -25.702879 1210.3094 0.3590242 -0.032866381 -0.93274933 0.18189836
292.0896 -22.252613 1210.5737 0.096823618 -0.023614589 -0.99502134 0.17752811
300.82709 -22.060888 1210.7607 -0.15457061 -0.092613496 -0.98363137 0.19947967
292.19104 -13.840999 1210.2537 -0.2619454 -0.15447147 -0.95264012 0.20120196
291.05057 -6.6619487 1210.3561 -0.63366514 -0.013277961 -0.77349353 0.20956664
283.70749 -1.5947737 1209.6614 0.41519278 -0.06398537 -0.90748048 0.17406294
283.63138 0.5478726 1209.7112 0.54790097 0.27990261 -0.78832674 0.1840913
280.54007 17.363064 1209.6251 0.45251182 0.13342346 -0.88172054 0.17788139
310.82379 -60.043499 1211.958 0.50049579 -0.26804915 -0.82319719 0.24718755
317.35541 -54.618885 1211.0685 -0.185638 0.10960064 -0.97648668 0.17477527
304.31766 -43.872532 1210.9382 0.09024211 -0.20052074 -0.97552437 0.19217645
292.1044 -35.447781 1211.0983 0.54414678 -0.042989817 -0.837888 0.20691551
292.82501 -35.36607 1210.9185 -0.61863941 -0.038196027 -0.78474599 0.21418488
292.9024 -34.6427 1211.297 0.40617886 0.15906343 -0.89984304 0.20211554
292.88062 -32.189159 1211.36 -0.11655341 -0.2869845 -0.95081812 0.24577436
300.11926 -22.057621 1210.8191 -0.071328178 -0.12236153 -0.98991913 0.23651421
296.96106 -16.101067 1210.959 0.084444687 0.011101516 -0.99636638 0.18521945
298.64041 -15.85985 1210.8 0.10069331 0.078551263 -0.99181181 0.20942354
290.75549 -8.3946428 1210.813 -0.42204136 -0.18523365 -0.88745111 0.18566865
286.21771 10.189167 1211.2666 -0.53986502 -0.34127223 -0.76946664 0.20035627
312.34985 -55.867306 1212.0435 -0.53654087 0.031659104 -0.84328026 0.20661865
0 0 0 1 0 0 0 1 0 0 0 1 0 0 0 0 0 57 1 0 0
