ply
format ascii 1.0
comment PCL generated
element vertex 292
property float x
property float y
property float z
property float nx
property float ny
property float nz
property float curvature
element camera 1
property float view_px
property float view_py
property float view_pz
property float x_axisx
property float x_axisy
property float x_axisz
property float y_axisx
property float y_axisy
property float y_axisz
property float z_axisx
property float z_axisy
property float z_axisz
property float focal
property float scalex
property float scaley
property float centerx
property float centery
property int viewportx
property int viewporty
property float k1
property float k2
end_header
95.170036 92.12941 1143.556 -0.33435026 0.046803437 -0.94128597 0.15087563
83.438896 95.433212 1143.392 0.58674186 0.6141358 -0.52779847 0.15697645
73.316757 98.277008 1143.548 0.18263598 -0.24307464 -0.95265883 0.13827237
75.198639 97.800888 1143.562 -0.21836159 -0.1103185 -0.9696123 0.20435002
66.839272 99.269318 1143.4399 -0.18562788 -0.54618615 -0.81683719 0.1235734
73.314056 98.77816 1143.527 0.23297253 0.70491773 -0.66993642 0.097581692
66.706627 100.03565 1143.0527 -0.31007776 -0.4718104 -0.82537669 0.13073175
65.003128 101.2696 1143.589 -0.22633338 0.25046226 -0.94129801 0.14258604
66.858147 101.2204 1143.5909 0.25178927 0.47403836 -0.84373564 0.11933645
106.19805 88.209946 1144.4202 -0.13088785 -0.60457367 -0.78572196 0.090273812
108.52515 88.184158 1144.223 0.16896579 0.075266756 -0.9827438 0.12789275
99.246338 89.910873 1144.6074 -0.21506143 -0.42213529 -0.88065338 0.13654049
103.76829 89.305077 1144.2288 -0.23714775 -0.10709441 -0.96555263 0.10771892
108.3183 88.894783 1144.157 0.23399238 0.092632927 -0.9678154 0.098475769
96.782684 90.735191 1144.502 0.038253263 -0.72403181 -0.68870497 0.090245068
103.66006 90.350769 1144.463 -0.17754242 0.34414795 -0.92197663 0.1359455
96.685234 91.650467 1144.0198 0.17358108 -0.58125675 -0.79499072 0.16354977
97.827553 91.734871 1144.3932 0.022365425 0.36733088 -0.92982137 0.19367956
85.953247 93.09256 1144.4756 -0.26837268 -0.65966684 -0.70200849 0.14389758
93.008728 92.901329 1144.1534 0.078695461 0.33756629 -0.9380064 0.15100631
85.922318 94.085098 1144.0339 -0.27127105 -0.1963101 -0.94227087 0.1412205
90.612801 93.872826 1144.4639 0.049334291 0.56893313 -0.82090265 0.15996613
91.783348 93.873688 1144.4343 0.18493588 0.5213179 -0.83308244 0.094131738
84.798569 95.289734 1144.2985 0.27404526 0.49938223 -0.82189822 0.10716411
74.876236 97.729599 1143.9463 -0.29898003 -0.03731693 -0.95352948 0.18819509
78.389214 97.538261 1144.2207 0.39218256 0.7030859 -0.59318048 0.091607012
69.876083 99.020325 1143.8108 0.15878317 0.028423596 -0.9869042 0.11847343
71.40126 99.082588 1143.969 0.13056412 0.48167792 -0.86656761 0.12970173
72.604668 98.981689 1143.9613 0.029483527 0.60940754 -0.79230875 0.13107824
109.73553 86.623772 1144.8921 -0.096492484 -0.61243767 -0.78460771 0.1023315
110.7759 88.594803 1145.538 0.22856791 0.76529706 -0.6017285 0.10173847
113.40013 88.233177 1145.0533 0.24448226 0.66347593 -0.70712662 0.089895137
85.841713 91.993401 1145.469 -0.17119116 -0.85579532 -0.48816809 0.098590374
63.68375 102.3577 1145.208 0.16395913 0.019250488 -0.98627925 0.13438058
95.25441 87.802513 1147.3196 -0.24159265 -0.78553492 -0.56970859 0.089937203
102.3775 93.929626 1148.2954 0.23750123 0.68473077 -0.68901157 0.089222617
66.743057 93.032578 1149.3206 -0.19013342 -0.84674305 -0.49686578 0.095664233
65.283882 92.810509 1149.9476 -0.14840662 -0.88619822 -0.43889433 0.10665298
115.60837 92.812073 1150.4576 0.1273852 0.78124696 -0.61108607 0.094513997
82.416794 85.885361 1151.8118 -0.49761298 -0.37711632 -0.78113031 0.17036423
90.309967 82.644257 1153.1 0.066355139 -0.72185326 -0.68885767 0.09031228
81.748451 85.46167 1152.129 -0.48700708 -0.31740221 -0.81368291 0.10229125
77.826797 107.2322 1154.1 0.23401682 0.82657045 -0.5118764 0.098650098
93.250748 79.940193 1154.974 -0.28666511 -0.85977632 -0.42262015 0.10227763
71.352913 84.479584 1155.6718 -0.25100181 -0.30338609 -0.91921431 0.10180068
68.484543 82.576927 1157.746 -0.43322542 -0.64243454 -0.63213414 0.090365522
82.295624 109.58636 1157.3845 0.34205472 0.79597592 -0.49942058 0.11576407
83.240311 109.61385 1157.2939 0.54655021 0.63926864 -0.54094225 0.096546881
85.603302 109.61267 1158.8925 0.17666966 0.78386331 -0.59526974 0.10151234
109.8754 67.906631 1162.5924 -0.29265246 -0.73540521 -0.61117399 0.13208206
111.27835 67.847229 1162.3175 -0.31052545 -0.698102 -0.64515698 0.16660677
106.16929 69.322594 1162.3011 -0.17951718 -0.78546679 -0.59229672 0.097741671
106.27975 69.956543 1161.8625 -0.19051184 -0.79197472 -0.58007002 0.10221973
91.237411 111.95765 1162.4756 0.33095178 0.59976095 -0.72853118 0.12527673
89.543198 112.83286 1162.599 0.126856 0.80007935 -0.58632809 0.10743981
86.800873 115.2223 1163.86 -0.0020932544 0.63456535 -0.77286631 0.11017039
105.3638 66.821426 1165.0229 -0.35657272 -0.77640778 -0.51966041 0.10664194
62.840744 78.688774 1164.3267 -0.31080917 -0.74085271 -0.59542835 0.12574729
73.884453 118.6477 1164.915 0.2971431 0.60246128 -0.74077421 0.12155575
74.846535 118.19047 1165.0734 0.40010491 0.68630779 -0.60736954 0.11584737
121.6749 107.24395 1166.1735 0.28900242 0.68866575 -0.66499406 0.10176153
102.633 112.24962 1165.9218 0.092871577 0.63441503 -0.76739335 0.097708501
73.424332 119.6208 1165.217 0.28886873 0.64915591 -0.70367002 0.14644383
75.087326 119.38947 1165.3392 0.28024617 0.36300477 -0.88864481 0.15669067
105.05993 64.344025 1167.0959 -0.1283247 -0.80187964 -0.58354241 0.092075333
108.62213 64.087074 1167.031 -0.34429806 -0.74859983 -0.56661904 0.11279795
120.5129 108.24063 1166.6683 0.10619045 0.84878689 -0.5179618 0.11256585
105.3036 112.5846 1166.5389 0.29144666 0.74758619 -0.59680295 0.096586078
101.50143 113.52326 1166.5299 -0.061666753 0.70759201 -0.70392531 0.096028522
109.5924 59.751011 1170.2815 -0.3600477 -0.67167521 -0.64747047 0.120421
52.53841 74.094963 1171.173 -0.094184346 -0.84996837 -0.51834643 0.099368677
107.0901 60.041656 1171.3425 -0.065982305 -0.73158175 -0.67855322 0.10491227
105.6949 55.923679 1174.797 -0.1438836 -0.70139498 -0.69809926 0.094223283
105.11434 55.789398 1175.3687 -0.26602185 -0.75365341 -0.6010316 0.099059694
96.546043 56.950855 1177.6178 -0.52995282 -0.61556935 -0.5832876 0.12801284
93.104507 54.795422 1179.521 -0.69566667 0.086741708 -0.71310848 0.13717259
100.4528 51.421909 1180.792 -0.38464424 -0.78280652 -0.48914504 0.10989275
99.959763 52.446159 1180.7531 -0.37570783 -0.65857697 -0.65201229 0.12193953
101.34958 52.148365 1180.2606 -0.28786168 -0.69134527 -0.66270459 0.088857219
91.881927 54.629902 1180.657 -0.41563731 0.15088759 -0.89692724 0.093144067
91.912842 55.409218 1180.679 -0.57422912 0.17460766 -0.79985809 0.14613982
99.040443 52.220829 1181.3019 -0.2746976 -0.61083251 -0.74257988 0.11275961
100.22124 51.984676 1180.9685 -0.47349229 -0.65192884 -0.59227854 0.11164326
89.742348 53.748547 1181.1876 -0.58278728 -0.37568438 -0.72056943 0.16248687
89.462898 55.602139 1181.6077 -0.32504067 0.64594477 -0.69072711 0.12460142
64.909714 61.205021 1180.952 0.042701263 -0.74738836 -0.66301382 0.13920876
66.659019 61.774101 1181.1635 0.46341959 -0.13136321 -0.87634814 0.10596965
86.972137 53.837482 1183.0737 -0.44876033 -0.28803235 -0.84596193 0.14781822
88.090088 53.505985 1182.8336 -0.38499948 -0.62030756 -0.68336946 0.095047966
85.80896 54.750862 1183.0779 -0.16353776 -0.1444194 -0.97590899 0.12933756
78.661522 54.849449 1184.2578 -0.079507969 -0.40826893 -0.90939265 0.10103779
80.93428 54.530674 1183.8113 -0.24200371 -0.34097362 -0.90838933 0.11909162
82.145348 54.512585 1183.5975 -0.14144711 -0.27149481 -0.95198905 0.09756317
84.537331 54.021828 1183.5125 -0.14040215 -0.5790416 -0.80311769 0.17367797
77.360992 55.768463 1184.2633 -0.046833836 -0.011225893 -0.99883962 0.15894721
85.648277 55.765789 1183.5193 -0.17906259 0.69484204 -0.69651353 0.10006664
74.949272 56.987514 1184.2089 0.20347789 0.18937451 -0.96059042 0.09162385
76.168953 56.628502 1184.3348 0.057080634 0.33886898 -0.93910044 0.092310518
103.9232 46.539757 1185.2385 -0.25234568 -0.80194348 -0.5414871 0.09782818
91.640701 48.801899 1185.585 0.01435196 -0.77549332 -0.63119251 0.11315738
91.785393 49.584408 1185.3521 -0.021949364 -0.78002071 -0.62536854 0.106162
72.567451 54.883347 1185.0945 -0.13705422 -0.82321388 -0.5509401 0.090245523
98.975067 46.380024 1186.5457 -0.11128134 -0.67374343 -0.73053831 0.104003
99.86084 46.837109 1186.243 -0.21170437 -0.81428039 -0.54048938 0.088721626
84.613708 50.186806 1186.5677 -0.19274314 -0.78000313 -0.59535307 0.099595249
85.812347 50.099518 1186.3894 -0.22021733 -0.75805324 -0.61388892 0.10556509
83.206848 51.723938 1185.7004 -0.18841957 -0.73763245 -0.64837986 0.088738829
47.829681 59.651581 1186.574 -0.10367843 -0.81860644 -0.56491965 0.10359763
102.78207 43.831238 1187.7914 -0.30943033 -0.71881002 -0.62254727 0.10295311
103.36445 43.748169 1187.6836 -0.14774638 -0.72247744 -0.6754238 0.10277923
101.30785 44.828865 1187.306 -0.053771898 -0.65953976 -0.74974388 0.094470106
47.608444 59.184532 1187.0791 -0.070553832 -0.80190462 -0.59327155 0.09307795
90.896652 45.069904 1189.041 -0.38548639 -0.69544572 -0.60642844 0.10418683
75.011772 49.510773 1189.6769 -0.13403612 -0.91191584 -0.38787103 0.098179974
99.123329 41.568062 1190.6674 -0.042118236 -0.44382375 -0.89512372 0.13349126
99.109131 42.344318 1190.5609 -0.082978077 -0.36346409 -0.9279055 0.11596814
99.731758 42.181889 1190.407 -0.030993715 -0.62729728 -0.7781629 0.19572315
54.528522 53.322701 1191.2313 -0.24887688 -0.79623359 -0.55142754 0.089908861
60.883827 50.20063 1192.7224 -0.27633512 -0.75863928 -0.59000456 0.10087203
50.919708 53.36974 1191.9376 -0.19749072 -0.80527526 -0.55904311 0.094660543
96.830376 39.203918 1193.0206 -0.046075087 -0.93639636 -0.34790647 0.098226681
84.941055 42.593727 1193.5591 -0.27738616 -0.6205579 -0.7334609 0.13135852
45.994808 53.309326 1193.0587 -0.27205577 -0.73775071 -0.61782646 0.10131761
89.39386 40.179092 1194.4895 0.005450218 -0.92762905 -0.37346289 0.12708321
88.048073 41.06842 1194.259 -0.28406656 -0.72837526 -0.62351876 0.10999535
51.97551 50.784592 1194.447 -0.080835603 -0.84567112 -0.52754724 0.08868809
90.712784 38.044804 1196.307 -0.17490838 -0.56674707 -0.80511171 0.095185362
52.275887 48.674152 1195.8369 -0.069536954 -0.69684815 -0.71383977 0.10543928
85.645737 38.12075 1197.5229 -0.25688213 -0.81837755 -0.51407176 0.08950758
65.452431 41.569824 1199.5878 -0.26865363 -0.68914765 -0.672979 0.089751475
66.781296 41.426575 1199.2156 -0.14673127 -0.70267409 -0.69621766 0.093095854
61.800285 42.749176 1199.5282 0.070986517 -0.54559129 -0.83503956 0.14870182
68.140282 39.929611 1200.2217 -0.1149681 -0.73400742 -0.66933966 0.10158619
53.445366 43.985893 1200.7483 -0.16045991 -0.79304457 -0.5876503 0.09533903
34.691299 47.78664 1201.1591 -0.22804022 -0.3802121 -0.89634609 0.11622395
22.490143 52.205372 1201.0083 -0.19337508 -0.36765158 -0.90963644 0.18053845
21.99828 53.19828 1200.958 -0.20562659 -0.14973821 -0.96710712 0.10323686
23.219891 53.189945 1200.9365 0.061634634 -0.12952462 -0.98965883 0.10686059
103.6066 29.851891 1202.396 -0.34142286 -0.25733331 -0.90399665 0.24824274
69.195045 38.168411 1202.0897 -0.05448908 -0.75283051 -0.65595508 0.1153807
42.599052 45.115582 1201.9885 -0.38662905 -0.71294427 -0.58500296 0.10188231
35.428104 47.778214 1201.2395 -0.12391532 -0.86852533 -0.47990504 0.1592702
38.988029 47.458092 1201.7935 -0.22319843 -0.27061874 -0.93645501 0.12923655
40.400745 47.695393 1202.0753 0.067877561 -0.17291544 -0.98259497 0.14904778
33.96217 48.513252 1201.77 -0.36071128 -0.35179827 -0.86378551 0.12307021
37.872028 48.544991 1201.7947 -0.36303431 -0.29137835 -0.88504511 0.14091057
23.470861 51.006195 1201.7396 -0.1036583 -0.74484283 -0.65913892 0.10659947
24.690428 50.985027 1201.5952 -0.42488331 -0.32836607 -0.84359348 0.11380432
33.00782 50.897987 1202.1345 0.42353126 0.46798864 -0.77563387 0.10355894
24.942509 51.983154 1201.5225 -0.36828423 -0.43046281 -0.82405615 0.1836843
23.955191 53.191761 1201.229 0.19402358 -0.22572613 -0.95467412 0.096227087
24.703461 52.816307 1201.641 0.073611394 -0.1054357 -0.99169791 0.14286716
124.2842 22.44582 1203.6 -0.34705564 -0.68393809 -0.64170164 0.12331223
126.71182 22.310774 1203.359 -0.19392996 -0.42388725 -0.88470936 0.093041569
123.06126 23.521793 1203.2866 -0.099515341 -0.29821372 -0.94929725 0.1706104
125.50752 23.304714 1203.1633 -0.0084189307 0.07546141 -0.99711317 0.13768703
126.46781 23.40097 1203.2053 0.1781068 0.2037559 -0.96268451 0.15593266
119.31399 24.659933 1202.9999 -0.1720247 -0.29864165 -0.93873352 0.094540738
123.04187 24.650372 1203.4132 -0.13742046 0.42481709 -0.89478827 0.132512
124.10284 24.581787 1203.3727 0.22009194 0.63403928 -0.74131894 0.12231471
119.3331 26.434179 1203.21 0.31231442 0.77044171 -0.55576903 0.13399313
102.74242 29.328733 1202.8502 -0.17032345 -0.38359338 -0.90765965 0.1749206
104.97068 29.24118 1202.4945 0.25395185 -0.62517309 -0.73801571 0.23109752
108.66196 29.140629 1203.0098 -0.10157049 0.33569092 -0.93648016 0.089612141
104.8792 30.430096 1202.7786 -0.037754633 -0.10934041 -0.99328721 0.11212769
77.713028 35.628998 1202.833 -0.21044779 -0.87632436 -0.4333213 0.097018555
54.747662 39.437069 1203.431 -0.16960031 -0.85170937 -0.4958092 0.1173969
55.97921 39.409538 1203.2786 -0.16390923 -0.70026088 -0.69481546 0.089863881
56.933201 40.864166 1202.512 0.035590243 -0.85455215 -0.51814485 0.10813354
34.235149 46.374756 1203.3446 -0.13004294 -0.6821233 -0.71958083 0.10429118
24.713495 48.873779 1203.2815 -0.27544522 -0.81042266 -0.51705426 0.092067994
82.097565 73.776306 1202.8022 0.36056688 0.53550577 -0.76369172 0.11023576
83.348381 73.788765 1203.1202 0.2993744 0.62986439 -0.71669084 0.11073802
81.117004 74.752647 1202.7471 0.31065735 0.65797877 -0.68597078 0.10733426
122.6456 22.473585 1204.3254 -0.38860226 -0.77474183 -0.49876195 0.092192754
124.2987 21.964479 1203.866 -0.29810873 -0.60998756 -0.7341978 0.099662788
124.8484 22.202625 1203.87 -0.2109866 -0.5611496 -0.80037236 0.10639675
122.0678 23.279785 1203.833 0.23052408 -0.52787966 -0.81743604 0.1037712
115.78336 24.717606 1204.2156 -0.27657655 -0.70943975 -0.64822882 0.099572837
118.4563 24.444441 1203.651 -0.28942537 -0.42933959 -0.85551184 0.093689904
66.556999 36.713333 1204.5551 -0.21289021 -0.70784187 -0.67352617 0.08946228
54.31234 39.45546 1204.129 -0.10286101 -0.93403125 -0.34206018 0.10625321
66.046448 38.41394 1203.948 -0.206691 -0.89940739 -0.38515607 0.10341094
44.022511 40.571129 1204.481 -0.16980165 -0.38280523 -0.90809005 0.15507869
53.657043 40.111317 1204.1223 -0.52337879 -0.65144837 -0.54926288 0.09232945
54.301491 39.93327 1203.877 -0.62452734 -0.58231997 -0.52045083 0.12387802
30.594101 46.196022 1204.3588 -0.17912093 -0.81235319 -0.55497557 0.089102477
43.581161 48.563736 1204.1775 0.38251856 0.62857938 -0.67717612 0.10171335
80.331879 31.09288 1205.774 -0.14824778 -0.68884957 -0.70958358 0.096816942
76.420723 32.046139 1205.969 -0.31238487 -0.61853218 -0.72099483 0.10220765
80.082947 31.785503 1205.608 -0.32104039 -0.63274586 -0.70467424 0.10647197
45.039894 41.351929 1205.0619 0.090148471 -0.33182055 -0.93902528 0.09127485
46.197418 41.164677 1205.0844 -0.23207974 -0.62225866 -0.74761826 0.099259607
23.276344 46.53043 1205.8035 -0.014998039 -0.89823753 -0.43925431 0.10350458
23.268887 47.241692 1205.1775 -0.10075789 -0.84997344 -0.51710051 0.10772059
91.920174 28.302912 1206.4332 -0.28711617 -0.64061219 -0.71216595 0.092250317
80.352608 29.705811 1206.245 -0.2323893 -0.73032212 -0.64235884 0.11328495
73.013771 31.109051 1206.657 -0.40373456 -0.72333097 -0.56017035 0.10245762
72.711121 31.764076 1206.8243 -0.43903622 -0.68173671 -0.5852198 0.10698359
73.78714 31.633144 1206.9355 -0.16787958 -0.75498432 -0.6338889 0.1004336
72.398094 32.957424 1206.772 -0.51927418 -0.53763026 -0.66431022 0.095902078
75.958687 32.623852 1206.228 -0.26379025 -0.82929271 -0.49263406 0.15654698
70.288589 33.696121 1206.1316 0.093296811 -0.56013435 -0.82313132 0.096907929
66.8909 35.125916 1206.0945 -0.094347484 -0.69464928 -0.71313453 0.088968016
28.98667 54.88739 1207 0.44766065 0.48226935 -0.75300479 0.1000501
28.007549 57.146507 1206.8779 0.32831973 0.84522778 -0.42165881 0.10645106
91.632614 26.813318 1207.4504 -0.17034784 -0.68623036 -0.70715594 0.10343305
116.37 29.923599 1207.401 0.21871693 0.5038619 -0.83563513 0.10511179
117.3226 29.91744 1207.299 0.083446443 0.70308638 -0.70619136 0.14914444
44.886482 38.638412 1207.8685 -0.22601548 -0.6131795 -0.75692004 0.10339176
34.35236 40.675919 1208.385 -0.27604577 -0.71469241 -0.64266127 0.10433421
30.956381 53.9217 1207.403 0.28354129 0.55220693 -0.78400999 0.13226137
34.153458 53.655167 1207.6245 0.41074875 0.16933851 -0.89588493 0.15578377
35.15295 53.678822 1208.0685 0.30446938 0.51794338 -0.79939538 0.11138356
36.874981 53.464439 1208.291 0.20351252 0.36672676 -0.9077962 0.094402105
30.799433 54.750061 1207.562 0.35323828 0.39443269 -0.84831929 0.093657315
31.721334 54.681877 1207.8269 0.20577627 0.37256593 -0.90490371 0.10651138
33.930489 54.678474 1207.8779 0.27219865 0.18555558 -0.94418061 0.10040689
34.923027 54.693962 1208.3035 0.40491772 0.37408018 -0.83432949 0.14824916
34.16523 55.379112 1207.5916 0.27183092 0.22896369 -0.93471044 0.09608458
110.0232 21.632231 1208.717 -0.14441934 -0.52066147 -0.84145987 0.093303397
62.127605 31.729683 1209.4379 -0.35179266 -0.36772925 -0.86082351 0.23767792
57.194763 32.734344 1209.3926 -0.13482563 -0.30050495 -0.94420272 0.09840747
62.111046 32.683891 1209.0459 0.087364361 -0.86106288 -0.50093728 0.11881036
55.792858 34.317543 1209.3955 -0.37987387 -0.52850235 -0.75919765 0.13917024
43.933998 36.745697 1209.1885 -0.38861871 -0.82774621 -0.40473664 0.10503476
43.494602 37.606567 1208.9893 -0.29043931 -0.76829231 -0.57041365 0.097160786
22.595449 42.754349 1209.522 -0.4604274 -0.63392127 -0.62141007 0.12767588
16.206564 44.012543 1209.4562 -0.24494439 -0.60959029 -0.75392437 0.11679608
43.549648 53.478588 1209.3949 0.11067662 0.51232374 -0.85163081 0.13227822
39.115959 54.689156 1209.0272 0.19479388 0.24805555 -0.94895929 0.095478915
43.307072 54.447048 1209.574 0.21361166 0.5999791 -0.77097034 0.14749198
37.774086 55.543114 1209.126 0.13407052 0.31545264 -0.93942255 0.095888026
40.355839 55.429138 1209.447 0.36697134 0.40606919 -0.83692288 0.092793129
123.9799 15.67833 1210.15 -0.079413272 -0.79101437 -0.60662162 0.094762094
116.1013 17.200279 1210.566 -0.065611407 -0.27289933 -0.95980263 0.1014268
89.253723 23.760303 1210.645 0.077072963 -0.6572082 -0.74975806 0.095408499
95.357079 23.452881 1210.0493 -0.17109086 -0.76790386 -0.61729378 0.1128025
69.034088 29.49807 1210.0757 -0.1639538 -0.72539842 -0.66851795 0.12221193
60.908581 30.748449 1209.6801 -0.11414059 -0.072591454 -0.99080896 0.1220612
63.365082 30.740841 1209.687 -0.056926593 -0.73251021 -0.67837161 0.17860965
59.538063 31.911856 1209.7378 -0.06573505 -0.3696689 -0.92683542 0.12311551
60.784538 31.739407 1209.73 -0.11414059 -0.072591454 -0.99080896 0.1220612
61.409119 31.734015 1209.8734 -0.16165227 -0.096421085 -0.982126 0.12433095
44.70298 35.754539 1209.6689 -0.34071204 -0.84549624 -0.4111585 0.10023354
52.090431 35.229641 1209.707 -0.19364254 -0.73763132 -0.64684051 0.10377137
42.488235 36.510826 1209.7727 -0.097145841 -0.88093847 -0.46315247 0.099349819
21.861916 43.250965 1209.634 -0.34456417 -0.73381931 -0.58547825 0.13419829
44.29353 53.706036 1209.6531 0.18466035 0.45117903 -0.87311971 0.10963707
43.90831 54.758312 1209.7816 0.18461177 0.45119163 -0.87312347 0.10963107
43.813583 55.430958 1209.9041 0.24556847 0.59933263 -0.76190323 0.13537334
108.50548 18.490036 1211.4038 0.2789602 -0.74297285 -0.60841805 0.13842742
109.55275 18.487263 1211.6915 -0.037572399 -0.7033447 -0.7098552 0.1039573
108.2549 19.2244 1211.007 0.3575635 -0.66276455 -0.65794486 0.09895511
109.55505 19.223314 1211.7476 -0.25343436 -0.92391074 -0.28663564 0.11080086
94.495071 23.2209 1210.86 -0.018331127 -0.64341694 -0.76529652 0.10834897
76.744072 26.284229 1211.0389 -0.29866481 -0.78527606 -0.54234755 0.091198906
77.453415 26.276924 1210.9185 -0.34797829 -0.7608189 -0.54778254 0.11567566
75.016197 27.030014 1211.0479 -0.1369518 -0.76794362 -0.62570494 0.10877712
23.478239 61.794682 1211.3167 0.15197727 0.76637429 -0.62415814 0.1067047
110.331 17.865089 1212.131 0.058704976 -0.64395702 -0.76280606 0.11847916
126.7178 34.000443 1214.3595 0.041764993 0.69217223 -0.72052294 0.09238258
110.0297 37.999771 1213.274 0.39935368 0.59631252 -0.69636786 0.091451764
37.169041 61.731831 1216.766 -0.56172073 -0.19361417 -0.80435276 0.11806545
28.283592 65.461357 1216.426 0.10917415 0.68696064 -0.71844697 0.13495621
124.8355 38.57066 1217.76 -0.32450232 0.59188336 -0.73781586 0.097771756
29.80596 64.311333 1217.99 0.7104733 -0.41215166 -0.57040226 0.090507984
123.9969 37.135849 1219.114 -0.68911839 -0.0810479 -0.72010213 0.11992346
124.1947 38.883198 1218.7681 -0.25798115 0.13816452 -0.95621979 0.10775874
120.59402 41.302631 1218.8002 -0.17464161 -0.44331238 -0.87918967 0.093769468
121.73242 41.333389 1218.8511 -0.1923576 -0.066606201 -0.97906184 0.14128733
122.84843 41.28175 1218.7137 0.21569926 0.18411011 -0.95894593 0.14002419
118.33994 42.265568 1218.9984 0.082337908 0.92633879 -0.36758262 0.1594748
29.810459 63.88728 1218.131 0.6795935 -0.38142622 -0.62663114 0.098665081
122.50575 37.885483 1219.282 -0.82667869 -0.44785914 -0.34062368 0.13809142
130.9944 38.088829 1219.486 0.41367042 0.59353256 -0.69035923 0.090009138
119.06495 41.36739 1219.2505 0.018929759 -0.52396113 -0.8515318 0.15122783
26.91394 69.894821 1220.3495 0.30056369 0.27845064 -0.91220981 0.098058388
26.91885 71.364304 1220.386 0.22632216 0.3193782 -0.92020416 0.16693781
25.42799 70.430443 1220.428 0.10812903 0.72458571 -0.68064946 0.15771334
26.916107 70.296783 1220.4988 0.18348612 0.21841207 -0.95845139 0.097649105
30.40147 70.009323 1220.83 0.1530071 0.30091047 -0.94129783 0.10785611
26.918797 71.029816 1220.4985 0.21667449 0.35498399 -0.90941662 0.16490248
28.086695 71.066315 1220.7413 0.23905788 0.078164607 -0.96785414 0.089100949
36.905682 68.005234 1222.545 0.2464077 0.6756652 -0.69480914 0.14001335
121.4597 45.00676 1223.2629 0.20980659 0.76139134 -0.61340392 0.091262423
121.7137 45.841637 1223.6379 0.086084485 0.90306872 -0.42078063 0.099454179
40.418411 67.043633 1223.7629 0.31167895 -0.032116998 -0.94964451 0.11946375
41.396572 67.779205 1223.4698 0.07702744 -0.51172709 -0.8556881 0.10155628
36.664986 69.526031 1222.9294 0.21136314 0.25946271 -0.94234008 0.091494918
39.402527 68.987511 1222.917 0.59642863 0.021520689 -0.80237746 0.095059223
48.474964 67.887787 1225.9465 0.65961969 0.22917998 -0.71580613 0.13422489
0 0 0 1 0 0 0 1 0 0 0 1 0 0 0 0 0 292 1 0 0
